<svg width="20" height="20" viewBox="0 0 20 20" fill="none" xmlns="http://www.w3.org/2000/svg">
<path d="M5.13925 13.1018L8.28656 11.3371L8.33925 11.1833L8.28656 11.0983H8.13269L7.60606 11.066L5.80763 11.0174L4.24813 10.9526L2.73719 10.8717L2.35644 10.7907L2 10.3211L2.03644 10.0864L2.35644 9.87192L2.81419 9.91239L3.82681 9.98115L5.34581 10.0864L6.44763 10.1511L8.08 10.3211H8.33925L8.37569 10.2159L8.28656 10.1511L8.21775 10.0864L6.64606 9.02187L4.94481 7.89667L4.05369 7.24903L3.57162 6.92115L3.32862 6.61357L3.22331 5.94171L3.66081 5.46001L4.24813 5.50054L4.398 5.54101L4.99344 5.99835L6.26531 6.98198L7.92606 8.20424L8.16913 8.40659L8.26631 8.33777L8.2785 8.28924L8.16913 8.10707L7.26581 6.47593L6.30175 4.81644L5.87238 4.12833L5.759 3.71552C5.7185 3.54546 5.69012 3.40382 5.69012 3.22976L6.18837 2.55384L6.46375 2.46484L7.12813 2.5539L7.40763 2.79672L7.82075 3.73982L8.48912 5.22531L9.52606 7.24503L9.82987 7.84408L9.99188 8.3986L10.0527 8.56859H10.158V8.47142L10.243 7.33409L10.401 5.93765L10.5549 4.14051L10.6076 3.63464L10.8588 3.02748L11.3569 2.6996L11.7458 2.88577L12.0658 3.34318L12.0212 3.63858L11.8309 4.87314L11.4583 6.80793L11.2152 8.10313H11.3569L11.519 7.94119L12.1752 7.07098L13.2769 5.69477L13.7631 5.14837L14.3301 4.54527L14.6947 4.25792H15.3833L15.8896 5.01079L15.6628 5.78789L14.9539 6.68646L14.3666 7.44738L13.5241 8.58071L12.9974 9.4874L13.0461 9.56022L13.1717 9.5481L15.0754 9.14335L16.1043 8.95711L17.3316 8.74665L17.8866 9.0057L17.9473 9.26881L17.7286 9.80716L16.4162 10.1309L14.8769 10.4386L12.5843 10.981L12.5559 11.0012L12.5884 11.0417L13.6213 11.1388L14.0628 11.1631H15.1443L17.1574 11.3128L17.6841 11.6609L18 12.0859L17.9473 12.4097L17.1372 12.8226L16.0436 12.5635L13.4917 11.9564L12.6167 11.7378H12.4952V11.8107L13.2243 12.523L14.561 13.7292L16.2339 15.2835L16.3189 15.668L16.1043 15.9715L15.8774 15.9392L14.4071 14.8342L13.84 14.3363L12.5559 13.2557H12.4709V13.369L12.7666 13.8021L14.3301 16.1497L14.4111 16.8701L14.2978 17.1049L13.8927 17.2466L13.4471 17.1656L12.5316 15.8826L11.5879 14.4375L10.8263 13.1423L10.7332 13.195L10.2836 18.0318L10.0729 18.2787L9.58681 18.4648L9.18181 18.1573L8.96706 17.6594L9.18175 16.6758L9.441 15.3928L9.65163 14.3728L9.842 13.1059L9.95544 12.685L9.94731 12.6566L9.85419 12.6687L8.89825 13.9802L7.44406 15.9433L6.29369 17.1737L6.01825 17.283L5.54025 17.0361L5.58481 16.5949L5.85212 16.2023L7.444 14.1785L8.404 12.9237L9.02381 12.1993L9.01975 12.094H8.98331L4.75437 14.8383L4.00094 14.9354L3.67687 14.6319L3.71738 14.134L3.87131 13.9721L5.14319 13.0978L5.13925 13.1018Z" fill="#D97757"/>
</svg>
