<svg width="20" height="20" viewBox="0 0 20 20" fill="none" xmlns="http://www.w3.org/2000/svg">
<path d="M18.3346 10H15.0013M5.0013 10H1.66797M10.0013 5.00002V1.66669M10.0013 18.3334V15M16.668 10C16.668 13.6819 13.6832 16.6667 10.0013 16.6667C6.3194 16.6667 3.33464 13.6819 3.33464 10C3.33464 6.31812 6.3194 3.33335 10.0013 3.33335C13.6832 3.33335 16.668 6.31812 16.668 10ZM12.5013 10C12.5013 11.3807 11.382 12.5 10.0013 12.5C8.62059 12.5 7.5013 11.3807 7.5013 10C7.5013 8.61931 8.62059 7.50002 10.0013 7.50002C11.382 7.50002 12.5013 8.61931 12.5013 10Z" stroke="white" stroke-width="1.5" stroke-linecap="round" stroke-linejoin="round"/>
</svg>
