<svg width="40" height="40" viewBox="0 0 40 40" fill="none" xmlns="http://www.w3.org/2000/svg">
<path d="M20.0007 3.3335C10.8173 3.3335 3.33398 10.8168 3.33398 20.0002C3.33398 29.1835 10.8173 36.6668 20.0007 36.6668C29.184 36.6668 36.6673 29.1835 36.6673 20.0002C36.6673 10.8168 29.184 3.3335 20.0007 3.3335ZM5.01732 20.0002C5.01732 17.8335 5.48398 15.7668 6.31732 13.9002L13.4673 33.4835C8.46732 31.0502 5.01732 25.9335 5.01732 20.0002ZM20.0007 34.9835C18.534 34.9835 17.1173 34.7668 15.7673 34.3668L20.2673 21.3002L24.8673 33.9168C24.9007 33.9835 24.934 34.0668 24.9673 34.1168C23.4173 34.6835 21.7507 34.9835 20.0007 34.9835ZM22.0673 12.9668C22.9673 12.9168 23.784 12.8168 23.784 12.8168C24.584 12.7168 24.5007 11.5335 23.684 11.5835C23.684 11.5835 21.2507 11.7668 19.684 11.7668C18.2173 11.7668 15.734 11.5835 15.734 11.5835C14.934 11.5502 14.834 12.7835 15.6507 12.8335C15.6507 12.8335 16.4173 12.9335 17.2173 12.9835L19.5506 19.3835L16.2673 29.2168L10.8173 12.9668C11.7173 12.9335 12.534 12.8335 12.534 12.8335C13.334 12.7335 13.2507 11.5502 12.434 11.6002C12.434 11.6002 10.0007 11.7835 8.43398 11.7835C8.15065 11.7835 7.81732 11.7835 7.46732 11.7668C10.1673 7.70016 14.7673 5.01683 20.0007 5.01683C23.9007 5.01683 27.4506 6.50016 30.1173 8.95016C30.0506 8.95016 29.984 8.9335 29.9173 8.9335C28.4507 8.9335 27.4007 10.2168 27.4007 11.6002C27.4007 12.8335 28.1173 13.8835 28.8673 15.1168C29.434 16.1168 30.1006 17.4002 30.1006 19.2502C30.1006 20.5335 29.6006 22.0168 28.9673 24.1002L27.4673 29.1002L22.0673 12.9668ZM33.1507 12.8168C35.0218 16.2431 35.4818 20.2643 34.4328 24.0246C33.3838 27.7849 30.9085 30.9873 27.534 32.9502L32.1173 19.7168C32.9673 17.5835 33.2507 15.8668 33.2507 14.3502C33.2507 13.8002 33.2173 13.2835 33.1507 12.8168Z" fill="#B23131"/>
</svg>
