<svg width="42" height="36" viewBox="0 0 42 36" fill="none" xmlns="http://www.w3.org/2000/svg">
<path d="M0 6C0 2.68629 2.68629 0 6 0H36C39.3137 0 42 2.68629 42 6V30C42 33.3137 39.3137 36 36 36H6C2.68629 36 0 33.3137 0 30V6Z" fill="#2D4059"/>
<mask id="path-2-outside-1_4367_8621" maskUnits="userSpaceOnUse" x="13.5" y="9.5" width="17" height="17" fill="black">
<rect fill="white" x="13.5" y="9.5" width="17" height="17"/>
<path fill-rule="evenodd" clip-rule="evenodd" d="M24.0967 14.2888C23.7408 14.1175 23.3254 13.9708 22.8333 13.8333C23.325 13.6954 23.7408 13.5492 24.0967 13.3779C24.8558 13.0129 25.3417 12.5321 25.7113 11.7679C25.8829 11.4121 26.0292 10.9954 26.1667 10.5C26.3042 10.9954 26.45 11.4125 26.6221 11.7679C26.9917 12.5325 27.4775 13.0129 28.2367 13.3779C28.5921 13.5492 29.0079 13.6954 29.5 13.8333C29.0083 13.9712 28.5925 14.1175 28.2367 14.2888C27.4775 14.6542 26.9917 15.1346 26.6221 15.8988C26.4504 16.2546 26.3038 16.6712 26.1667 17.1667C26.0292 16.6712 25.8833 16.2542 25.7113 15.8988C25.3417 15.1342 24.8558 14.6537 24.0967 14.2888ZM25.6342 14.3496C25.4376 14.1554 25.2213 13.9824 24.9887 13.8333C25.2215 13.6841 25.4379 13.511 25.6346 13.3167C25.835 13.1169 26.0133 12.8962 26.1667 12.6583C26.3198 12.8967 26.4984 13.1177 26.6992 13.3175C26.8967 13.5133 27.1117 13.6833 27.3446 13.8338C27.1119 13.9829 26.8954 14.1561 26.6987 14.3504C26.4984 14.5501 26.32 14.7706 26.1667 15.0083C26.0133 14.7702 25.8347 14.5492 25.6342 14.3492M15.8767 20.11C15.4242 19.9429 14.9649 19.7949 14.5 19.6667C14.9649 19.5384 15.4242 19.3905 15.8767 19.2233C17.9946 18.4292 19.0879 17.3579 19.89 15.2183C20.0579 14.7633 20.2058 14.3012 20.3333 13.8333C20.4609 14.3012 20.6088 14.7633 20.7767 15.2183C21.5787 17.3579 22.6725 18.4292 24.79 19.2233C25.2075 19.38 25.6642 19.5258 26.1667 19.6667C25.7017 19.7949 25.2424 19.9429 24.79 20.11C22.6721 20.9042 21.5787 21.9754 20.7767 24.115C20.6088 24.57 20.4609 25.0321 20.3333 25.5C20.2058 25.0321 20.0579 24.57 19.89 24.115C19.0879 21.9754 17.9942 20.9042 15.8767 20.11ZM18.9613 21.0142C18.4017 20.4583 17.7463 20.0267 16.9758 19.6667C17.7463 19.3067 18.4017 18.875 18.9613 18.3196C19.5258 17.7592 19.9662 17.0987 20.3333 16.3162C20.7 17.0987 21.1408 17.7592 21.7054 18.3196C22.265 18.875 22.9204 19.3067 23.6908 19.6667C22.9204 20.0267 22.265 20.4583 21.7054 21.0138C21.1408 21.5742 20.7004 22.2346 20.3333 23.0171C19.9667 22.2346 19.5258 21.5742 18.9613 21.0142Z"/>
</mask>
<path fill-rule="evenodd" clip-rule="evenodd" d="M24.0967 14.2888C23.7408 14.1175 23.3254 13.9708 22.8333 13.8333C23.325 13.6954 23.7408 13.5492 24.0967 13.3779C24.8558 13.0129 25.3417 12.5321 25.7113 11.7679C25.8829 11.4121 26.0292 10.9954 26.1667 10.5C26.3042 10.9954 26.45 11.4125 26.6221 11.7679C26.9917 12.5325 27.4775 13.0129 28.2367 13.3779C28.5921 13.5492 29.0079 13.6954 29.5 13.8333C29.0083 13.9712 28.5925 14.1175 28.2367 14.2888C27.4775 14.6542 26.9917 15.1346 26.6221 15.8988C26.4504 16.2546 26.3038 16.6712 26.1667 17.1667C26.0292 16.6712 25.8833 16.2542 25.7113 15.8988C25.3417 15.1342 24.8558 14.6537 24.0967 14.2888ZM25.6342 14.3496C25.4376 14.1554 25.2213 13.9824 24.9887 13.8333C25.2215 13.6841 25.4379 13.511 25.6346 13.3167C25.835 13.1169 26.0133 12.8962 26.1667 12.6583C26.3198 12.8967 26.4984 13.1177 26.6992 13.3175C26.8967 13.5133 27.1117 13.6833 27.3446 13.8338C27.1119 13.9829 26.8954 14.1561 26.6987 14.3504C26.4984 14.5501 26.32 14.7706 26.1667 15.0083C26.0133 14.7702 25.8347 14.5492 25.6342 14.3492M15.8767 20.11C15.4242 19.9429 14.9649 19.7949 14.5 19.6667C14.9649 19.5384 15.4242 19.3905 15.8767 19.2233C17.9946 18.4292 19.0879 17.3579 19.89 15.2183C20.0579 14.7633 20.2058 14.3012 20.3333 13.8333C20.4609 14.3012 20.6088 14.7633 20.7767 15.2183C21.5787 17.3579 22.6725 18.4292 24.79 19.2233C25.2075 19.38 25.6642 19.5258 26.1667 19.6667C25.7017 19.7949 25.2424 19.9429 24.79 20.11C22.6721 20.9042 21.5787 21.9754 20.7767 24.115C20.6088 24.57 20.4609 25.0321 20.3333 25.5C20.2058 25.0321 20.0579 24.57 19.89 24.115C19.0879 21.9754 17.9942 20.9042 15.8767 20.11ZM18.9613 21.0142C18.4017 20.4583 17.7463 20.0267 16.9758 19.6667C17.7463 19.3067 18.4017 18.875 18.9613 18.3196C19.5258 17.7592 19.9662 17.0987 20.3333 16.3162C20.7 17.0987 21.1408 17.7592 21.7054 18.3196C22.265 18.875 22.9204 19.3067 23.6908 19.6667C22.9204 20.0267 22.265 20.4583 21.7054 21.0138C21.1408 21.5742 20.7004 22.2346 20.3333 23.0171C19.9667 22.2346 19.5258 21.5742 18.9613 21.0142Z" fill="white"/>
<path d="M24.0967 14.2888L23.9883 14.514L23.9883 14.5141L24.0967 14.2888ZM22.8333 13.8333L22.7658 13.5926L21.906 13.8338L22.7661 14.0741L22.8333 13.8333ZM24.0967 13.3779L23.9883 13.1526L23.9883 13.1526L24.0967 13.3779ZM25.7113 11.7679L25.9363 11.8768L25.9364 11.8765L25.7113 11.7679ZM26.1667 10.5L26.4076 10.4331L26.1667 9.56519L25.9258 10.4331L26.1667 10.5ZM26.6221 11.7679L26.8472 11.6591L26.8471 11.659L26.6221 11.7679ZM28.2367 13.3779L28.3452 13.1527L28.345 13.1526L28.2367 13.3779ZM29.5 13.8333L29.5675 14.074L30.426 13.8332L29.5675 13.5926L29.5 13.8333ZM28.2367 14.2888L28.1283 14.0635L28.1282 14.0635L28.2367 14.2888ZM26.6221 15.8988L26.397 15.7899L26.3969 15.7901L26.6221 15.8988ZM26.1667 17.1667L25.9258 17.2335L26.167 18.1028L26.4076 17.2333L26.1667 17.1667ZM25.7113 15.8988L25.4862 16.0076L25.4862 16.0077L25.7113 15.8988ZM24.9887 13.8333L24.8538 13.6229L24.5255 13.8333L24.8538 14.0438L24.9887 13.8333ZM25.6346 13.3167L25.8103 13.4945L25.8111 13.4937L25.6346 13.3167ZM26.1667 12.6583L26.377 12.5232L26.167 12.1964L25.9565 12.5229L26.1667 12.6583ZM26.6992 13.3175L26.5228 13.4947L26.5231 13.495L26.6992 13.3175ZM27.3446 13.8338L27.4795 14.0442L27.8066 13.8345L27.4802 13.6237L27.3446 13.8338ZM26.6987 14.3504L26.523 14.1726L26.5223 14.1733L26.6987 14.3504ZM26.1667 15.0083L25.9565 15.1437L26.1665 15.4697L26.3767 15.1439L26.1667 15.0083ZM15.8767 20.11L15.9645 19.8759L15.9633 19.8755L15.8767 20.11ZM14.5 19.6667L14.4335 19.4257L13.56 19.6667L14.4335 19.9077L14.5 19.6667ZM15.8767 19.2233L15.9633 19.4578L15.9644 19.4574L15.8767 19.2233ZM19.89 15.2183L20.1241 15.3061L20.1245 15.3049L19.89 15.2183ZM20.3333 13.8333L20.5745 13.7676L20.3333 12.8828L20.0921 13.7676L20.3333 13.8333ZM20.7767 15.2183L20.5421 15.3049L20.5426 15.3061L20.7767 15.2183ZM24.79 19.2233L24.8778 18.9893L24.8778 18.9893L24.79 19.2233ZM26.1667 19.6667L26.2332 19.9077L27.0998 19.6686L26.2341 19.4259L26.1667 19.6667ZM24.79 20.11L24.7034 19.8755L24.7022 19.8759L24.79 20.11ZM20.7767 24.115L20.5426 24.0272L20.5421 24.0285L20.7767 24.115ZM20.3333 25.5L20.0921 25.5658L20.3333 26.4505L20.5745 25.5658L20.3333 25.5ZM19.89 24.115L20.1246 24.0285L20.1241 24.0272L19.89 24.115ZM18.9613 21.0142L18.7851 21.1915L18.7852 21.1917L18.9613 21.0142ZM16.9758 19.6667L16.87 19.4402L16.3853 19.6667L16.87 19.8932L16.9758 19.6667ZM18.9613 18.3196L19.1374 18.497L19.1374 18.497L18.9613 18.3196ZM20.3333 16.3162L20.5597 16.2102L20.3335 15.7273L20.107 16.2101L20.3333 16.3162ZM21.7054 18.3196L21.5293 18.497L21.5293 18.497L21.7054 18.3196ZM23.6908 19.6667L23.7967 19.8932L24.2814 19.6667L23.7967 19.4402L23.6908 19.6667ZM21.7054 21.0138L21.5293 20.8363L21.5293 20.8363L21.7054 21.0138ZM20.3333 23.0171L20.107 23.1232L20.3332 23.606L20.5597 23.1233L20.3333 23.0171ZM24.0967 14.2888L24.2051 14.0635C23.8316 13.8837 23.4012 13.7324 22.9006 13.5926L22.8333 13.8333L22.7661 14.0741C23.2497 14.2092 23.6501 14.3513 23.9883 14.514L24.0967 14.2888ZM22.8333 13.8333L22.9009 14.074C23.4006 13.9339 23.8315 13.783 24.2051 13.6032L24.0967 13.3779L23.9883 13.1526C23.6502 13.3153 23.2494 13.457 22.7658 13.5926L22.8333 13.8333ZM24.0967 13.3779L24.205 13.6032C25.0148 13.2139 25.5419 12.6922 25.9363 11.8768L25.7113 11.7679L25.4862 11.6591C25.1414 12.372 24.6969 12.8119 23.9883 13.1526L24.0967 13.3779ZM25.7113 11.7679L25.9364 11.8765C26.1168 11.5026 26.2677 11.0706 26.4076 10.5669L26.1667 10.5L25.9258 10.4331C25.7906 10.9202 25.649 11.3215 25.4861 11.6593L25.7113 11.7679ZM26.1667 10.5L25.9258 10.5669C26.0655 11.0703 26.2161 11.503 26.3971 11.8769L26.6221 11.7679L26.8471 11.659C26.6839 11.322 26.5428 10.9205 26.4076 10.4331L26.1667 10.5ZM26.6221 11.7679L26.397 11.8767C26.7914 12.6927 27.3186 13.2139 28.1283 13.6032L28.2367 13.3779L28.345 13.1526C27.6364 12.8119 27.1919 12.3723 26.8472 11.6591L26.6221 11.7679ZM28.2367 13.3779L28.1281 13.6031C28.5014 13.783 28.9324 13.9339 29.4325 14.0741L29.5 13.8333L29.5675 13.5926C29.0835 13.457 28.6827 13.3153 28.3452 13.1527L28.2367 13.3779ZM29.5 13.8333L29.4325 13.5926C28.9327 13.7328 28.5019 13.8837 28.1283 14.0635L28.2367 14.2888L28.3451 14.514C28.6831 14.3513 29.0839 14.2097 29.5675 14.074L29.5 13.8333ZM28.2367 14.2888L28.1282 14.0635C27.3186 14.4532 26.7914 14.9744 26.397 15.7899L26.6221 15.8988L26.8471 16.0076C27.1919 15.2948 27.6364 14.8551 28.3451 14.514L28.2367 14.2888ZM26.6221 15.8988L26.3969 15.7901C26.2166 16.1639 26.0652 16.5959 25.9257 17.1L26.1667 17.1667L26.4076 17.2333C26.5423 16.7466 26.6843 16.3452 26.8472 16.0074L26.6221 15.8988ZM26.1667 17.1667L26.4076 17.0998C26.2678 16.5963 26.1173 16.1636 25.9363 15.7898L25.7113 15.8988L25.4862 16.0077C25.6494 16.3447 25.7905 16.7462 25.9258 17.2335L26.1667 17.1667ZM25.7113 15.8988L25.9363 15.7899C25.5419 14.974 25.0147 14.4527 24.205 14.0634L24.0967 14.2888L23.9883 14.5141C24.697 14.8548 25.1414 15.2943 25.4862 16.0076L25.7113 15.8988ZM25.6342 14.3496L25.8099 14.1717C25.6009 13.9653 25.3709 13.7814 25.1237 13.6229L24.9887 13.8333L24.8538 14.0438C25.0717 14.1835 25.2744 14.3456 25.4585 14.5274L25.6342 14.3496ZM24.9887 13.8333L25.1237 14.0438C25.3711 13.8852 25.6012 13.7011 25.8103 13.4945L25.6346 13.3167L25.4589 13.1388C25.2746 13.3209 25.0719 13.4831 24.8538 13.6229L24.9887 13.8333ZM25.6346 13.3167L25.8111 13.4937C26.0241 13.2813 26.2138 13.0466 26.3768 12.7938L26.1667 12.6583L25.9565 12.5229C25.8129 12.7457 25.6458 12.9525 25.4581 13.1396L25.6346 13.3167ZM26.1667 12.6583L25.9563 12.7935C26.1193 13.047 26.3092 13.2821 26.5228 13.4947L26.6992 13.3175L26.8755 13.1403C26.6875 12.9532 26.5204 12.7463 26.377 12.5232L26.1667 12.6583ZM26.6992 13.3175L26.5231 13.495C26.7339 13.704 26.9626 13.8847 27.209 14.0438L27.3446 13.8338L27.4802 13.6237C27.2607 13.482 27.0594 13.3227 26.8752 13.14L26.6992 13.3175ZM27.3446 13.8338L27.2097 13.6233C26.9622 13.7819 26.7321 13.966 26.523 14.1726L26.6987 14.3504L26.8745 14.5282C27.0587 14.3462 27.2615 14.184 27.4795 14.0442L27.3446 13.8338ZM26.6987 14.3504L26.5223 14.1733C26.3093 14.3856 26.1196 14.6201 25.9566 14.8728L26.1667 15.0083L26.3767 15.1439C26.5204 14.9212 26.6875 14.7146 26.8752 14.5275L26.6987 14.3504ZM26.1667 15.0083L26.3768 14.873C26.2137 14.6198 26.0239 14.3848 25.8107 14.1722L25.6342 14.3492L25.4576 14.5262C25.6455 14.7136 25.8128 14.9206 25.9565 15.1437L26.1667 15.0083ZM15.8767 20.11L15.9633 19.8755C15.5043 19.7059 15.0382 19.5558 14.5665 19.4257L14.5 19.6667L14.4335 19.9077C14.8916 20.0341 15.3442 20.1798 15.79 20.3445L15.8767 20.11ZM14.5 19.6667L14.5665 19.9077C15.0382 19.7775 15.5043 19.6274 15.9633 19.4578L15.8767 19.2233L15.79 18.9888C15.3442 19.1535 14.8916 19.2993 14.4335 19.4257L14.5 19.6667ZM15.8767 19.2233L15.9644 19.4574C17.0449 19.0523 17.882 18.5697 18.553 17.9027C19.2242 17.2355 19.7147 16.3983 20.1241 15.3061L19.89 15.2183L19.6559 15.1306C19.2633 16.178 18.806 16.9462 18.2005 17.5481C17.5949 18.1501 16.8264 18.6002 15.7889 18.9892L15.8767 19.2233ZM19.89 15.2183L20.1245 15.3049C20.2949 14.843 20.4451 14.374 20.5745 13.8991L20.3333 13.8333L20.0921 13.7676C19.9665 14.2285 19.8208 14.6836 19.6555 15.1318L19.89 15.2183ZM20.3333 13.8333L20.0921 13.8991C20.2216 14.374 20.3717 14.843 20.5421 15.3049L20.7767 15.2183L21.0112 15.1318C20.8459 14.6836 20.7002 14.2285 20.5745 13.7676L20.3333 13.8333ZM20.7767 15.2183L20.5426 15.3061C20.952 16.3983 21.4426 17.2355 22.1138 17.9027C22.7849 18.5697 23.622 19.0523 24.7022 19.4574L24.79 19.2233L24.8778 18.9893C23.8405 18.6002 23.072 18.1501 22.4663 17.5481C21.8607 16.9462 21.4034 16.178 21.0108 15.1306L20.7767 15.2183ZM24.79 19.2233L24.7022 19.4574C25.1279 19.6171 25.5916 19.7651 26.0992 19.9074L26.1667 19.6667L26.2341 19.4259C25.7367 19.2865 25.2871 19.1429 24.8778 18.9893L24.79 19.2233ZM26.1667 19.6667L26.1002 19.4257C25.6284 19.5558 25.1624 19.7059 24.7034 19.8755L24.79 20.11L24.8766 20.3445C25.3224 20.1798 25.775 20.0341 26.2332 19.9077L26.1667 19.6667ZM24.79 20.11L24.7022 19.8759C23.6218 20.281 22.7847 20.7636 22.1136 21.4307C21.4425 22.0978 20.952 22.9351 20.5426 24.0272L20.7767 24.115L21.0108 24.2028C21.4034 23.1553 21.8607 22.3872 22.4661 21.7853C23.0718 21.1833 23.8403 20.7331 24.8778 20.3441L24.79 20.11ZM20.7767 24.115L20.5421 24.0285C20.3717 24.4903 20.2216 24.9593 20.0921 25.4342L20.3333 25.5L20.5745 25.5658C20.7002 25.1049 20.8459 24.6497 21.0112 24.2015L20.7767 24.115ZM20.3333 25.5L20.5745 25.4342C20.4451 24.9593 20.2949 24.4903 20.1245 24.0285L19.89 24.115L19.6555 24.2015C19.8208 24.6497 19.9665 25.1049 20.0921 25.5658L20.3333 25.5ZM19.89 24.115L20.1241 24.0272C19.7147 22.935 19.2241 22.0978 18.5529 21.4307C17.8818 20.7636 17.0447 20.281 15.9645 19.8759L15.8767 20.11L15.7889 20.3441C16.8262 20.7331 17.5947 21.1833 18.2004 21.7853C18.8059 22.3872 19.2633 23.1554 19.6559 24.2028L19.89 24.115ZM18.9613 21.0142L19.1374 20.8368C18.5536 20.2569 17.8728 19.8099 17.0817 19.4402L16.9758 19.6667L16.87 19.8932C17.6197 20.2435 18.2497 20.6598 18.7851 21.1915L18.9613 21.0142ZM16.9758 19.6667L17.0817 19.8932C17.8728 19.5235 18.5535 19.0765 19.1374 18.497L18.9613 18.3196L18.7851 18.1421C18.2498 18.6735 17.6197 19.0899 16.87 19.4402L16.9758 19.6667ZM18.9613 18.3196L19.1374 18.497C19.7265 17.9122 20.1826 17.2262 20.5597 16.4224L20.3333 16.3162L20.107 16.2101C19.7499 16.9713 19.3252 17.6061 18.7851 18.1422L18.9613 18.3196ZM20.3333 16.3162L20.107 16.4223C20.4836 17.2262 20.9402 17.9123 21.5293 18.497L21.7054 18.3196L21.8815 18.1422C21.3414 17.606 20.9164 16.9713 20.5597 16.2102L20.3333 16.3162ZM21.7054 18.3196L21.5293 18.497C22.1131 19.0765 22.7938 19.5235 23.585 19.8932L23.6908 19.6667L23.7967 19.4402C23.047 19.0899 22.4169 18.6735 21.8815 18.1421L21.7054 18.3196ZM23.6908 19.6667L23.585 19.4402C22.7938 19.8099 22.1131 20.2568 21.5293 20.8363L21.7054 21.0138L21.8815 21.1912C22.4169 20.6598 23.047 20.2435 23.7967 19.8932L23.6908 19.6667ZM21.7054 21.0138L21.5293 20.8363C20.9402 21.4211 20.4841 22.1072 20.107 22.9109L20.3333 23.0171L20.5597 23.1233C20.9168 22.362 21.3415 21.7272 21.8815 21.1912L21.7054 21.0138ZM20.3333 23.0171L20.5597 22.911C20.183 22.1071 19.7264 21.421 19.1373 20.8367L18.9613 21.0142L18.7852 21.1917C19.3252 21.7273 19.7503 22.362 20.107 23.1232L20.3333 23.0171Z" fill="white" mask="url(#path-2-outside-1_4367_8621)"/>
</svg>
