<svg width="38" height="33" viewBox="0 0 38 33" fill="none" xmlns="http://www.w3.org/2000/svg">
<path d="M3.85 1.54043e-08C2.82892 1.54043e-08 1.84965 0.405624 1.12764 1.12764C0.405624 1.84965 0 2.82892 0 3.85V26.2688C0 27.2125 0.2125 28.2388 0.63 29.1188C0.653345 29.1948 0.6839 29.2685 0.72125 29.3388C1.2574 30.3489 2.07217 31.1839 3.0688 31.7447C4.06544 32.3055 5.20207 32.5685 6.34375 32.5025H28.7525C29.5623 32.4992 30.3497 32.2364 30.9992 31.7527C31.6487 31.269 32.1261 30.5899 32.3612 29.815L37.3075 15.04L37.3137 15.02C37.4941 14.4512 37.5399 13.8482 37.4477 13.2586C37.3555 12.6691 37.1277 12.1089 36.7823 11.6223C36.4368 11.1357 35.9832 10.736 35.457 10.4544C34.9308 10.1729 34.3465 10.0174 33.75 10V8.75C33.75 6.62375 32.1262 5 30 5H19.7912C19.4355 4.99524 19.0954 4.85276 18.8425 4.6025L15.7825 1.4875L15.7725 1.47625C14.8215 0.530638 13.5349 -0.000104402 12.1937 1.54043e-08H3.85ZM31.25 10H12.3575C11.1522 10.0005 9.97655 10.3733 8.99119 11.0673C8.00583 11.7614 7.25889 12.7428 6.8525 13.8775L6.84875 13.8875C4.525 20.5488 3.22875 24.0913 2.5 25.96V3.85C2.5 3.105 3.105 2.5 3.85 2.5H12.1937C12.8721 2.50008 13.5229 2.7678 14.005 3.245L17.065 6.36L17.0762 6.37125C17.7978 7.08957 18.7731 7.49505 19.7912 7.5H30C30.745 7.5 31.25 8.005 31.25 8.75V10ZM4.30625 29.5713C4.11902 29.4651 3.94128 29.3429 3.775 29.2063L3.8275 29.13C3.88583 29.0375 3.94083 28.9417 3.9925 28.8425C4.095 28.6425 4.22 28.3675 4.38 27.9875C5.01375 26.475 6.34125 22.9338 9.2075 14.715C9.44098 14.0666 9.86873 13.5061 10.4324 13.1097C10.9961 12.7133 11.6684 12.5004 12.3575 12.5H33.6387C33.851 12.5006 34.0601 12.5509 34.2494 12.6469C34.4386 12.7429 34.6028 12.8819 34.7287 13.0527C34.8546 13.2236 34.9387 13.4216 34.9743 13.6308C35.0099 13.84 34.996 14.0546 34.9337 14.2575L29.9837 29.04L29.9775 29.0613L29.9725 29.08C29.894 29.3456 29.7319 29.5788 29.5103 29.745C29.2887 29.9112 29.0195 30.0015 28.7425 30.0025H6.30625L6.225 30.005C5.5571 30.0468 4.89121 29.8963 4.30625 29.5713Z" fill="#6B83A3"/>
</svg>
